<mxfile host="65bd71144e" modified="2020-12-15T20:39:39.131Z" agent="5.0 (X11; Linux x86_64) AppleWebKit/537.36 (KHTML, like Gecko) Code/1.52.0 Chrome/83.0.4103.122 Electron/9.3.5 Safari/537.36" version="13.10.0" etag="sN4PLybTCMf3TNbK_Ui3" type="embed">
    <diagram id="_dP8_TLEQuffA3_ZmL_K" name="Page-1">
        <mxGraphModel dx="1616" dy="918" grid="1" gridSize="10" guides="1" tooltips="1" connect="1" arrows="1" fold="1" page="1" pageScale="1" pageWidth="1600" pageHeight="1200" background="#ffffff" math="0" shadow="0">
            <root>
                <mxCell id="0"/>
                <mxCell id="1" parent="0"/>
                <mxCell id="2" value="" style="shape=cube;whiteSpace=wrap;html=1;boundedLbl=1;backgroundOutline=1;darkOpacity=0.05;darkOpacity2=0.1;fillColor=#68B85C;" vertex="1" parent="1">
                    <mxGeometry x="40" y="160" width="160" height="120" as="geometry"/>
                </mxCell>
                <mxCell id="3" value="&lt;font color=&quot;#030303&quot;&gt;Client Workstation&lt;br&gt;Telegram Client: Any&lt;br&gt;&lt;/font&gt;" style="text;html=1;strokeColor=none;fillColor=none;align=left;verticalAlign=middle;whiteSpace=wrap;rounded=0;" vertex="1" parent="1">
                    <mxGeometry x="65" y="190" width="130" height="20" as="geometry"/>
                </mxCell>
                <mxCell id="4" value="&lt;font color=&quot;#030303&quot;&gt;&lt;br&gt;&lt;/font&gt;" style="text;html=1;strokeColor=none;fillColor=none;align=left;verticalAlign=middle;whiteSpace=wrap;rounded=0;" vertex="1" parent="1">
                    <mxGeometry x="350" y="240" width="130" height="20" as="geometry"/>
                </mxCell>
                <mxCell id="12" value="" style="rounded=0;whiteSpace=wrap;html=1;strokeColor=#000000;fillColor=#FFFFFF;fontColor=#030303;align=left;" vertex="1" parent="1">
                    <mxGeometry x="85" y="220" width="100" height="40" as="geometry"/>
                </mxCell>
                <mxCell id="10" value="" style="group" vertex="1" connectable="0" parent="1">
                    <mxGeometry x="75" y="225" width="20" height="30" as="geometry"/>
                </mxCell>
                <mxCell id="8" value="" style="rounded=0;whiteSpace=wrap;html=1;strokeColor=#000000;fillColor=#FFFFFF;fontColor=#030303;align=left;" vertex="1" parent="10">
                    <mxGeometry width="20" height="10" as="geometry"/>
                </mxCell>
                <mxCell id="9" value="" style="rounded=0;whiteSpace=wrap;html=1;strokeColor=#000000;fillColor=#FFFFFF;fontColor=#030303;align=left;" vertex="1" parent="10">
                    <mxGeometry y="20" width="20" height="10" as="geometry"/>
                </mxCell>
                <mxCell id="13" value="Telegram-bot" style="text;html=1;strokeColor=none;fillColor=none;align=center;verticalAlign=middle;whiteSpace=wrap;rounded=0;fontColor=#030303;" vertex="1" parent="1">
                    <mxGeometry x="95" y="230" width="80" height="20" as="geometry"/>
                </mxCell>
                <mxCell id="14" value="" style="shape=cube;whiteSpace=wrap;html=1;boundedLbl=1;backgroundOutline=1;darkOpacity=0.05;darkOpacity2=0.1;fillColor=#68B85C;" vertex="1" parent="1">
                    <mxGeometry x="40" y="290" width="160" height="170" as="geometry"/>
                </mxCell>
                <mxCell id="15" value="&lt;font color=&quot;#030303&quot;&gt;Client Workstation&lt;br&gt;Telegram Client: Any&lt;br&gt;&lt;/font&gt;" style="text;html=1;strokeColor=none;fillColor=none;align=left;verticalAlign=middle;whiteSpace=wrap;rounded=0;" vertex="1" parent="1">
                    <mxGeometry x="65" y="320" width="130" height="20" as="geometry"/>
                </mxCell>
                <mxCell id="16" value="" style="rounded=0;whiteSpace=wrap;html=1;strokeColor=#000000;fillColor=#FFFFFF;fontColor=#030303;align=left;" vertex="1" parent="1">
                    <mxGeometry x="85" y="350" width="100" height="40" as="geometry"/>
                </mxCell>
                <mxCell id="17" value="" style="group" vertex="1" connectable="0" parent="1">
                    <mxGeometry x="75" y="355" width="20" height="30" as="geometry"/>
                </mxCell>
                <mxCell id="18" value="" style="rounded=0;whiteSpace=wrap;html=1;strokeColor=#000000;fillColor=#FFFFFF;fontColor=#030303;align=left;" vertex="1" parent="17">
                    <mxGeometry width="20" height="10" as="geometry"/>
                </mxCell>
                <mxCell id="19" value="" style="rounded=0;whiteSpace=wrap;html=1;strokeColor=#000000;fillColor=#FFFFFF;fontColor=#030303;align=left;" vertex="1" parent="17">
                    <mxGeometry y="20" width="20" height="10" as="geometry"/>
                </mxCell>
                <mxCell id="20" value="Angular" style="text;html=1;strokeColor=none;fillColor=none;align=center;verticalAlign=middle;whiteSpace=wrap;rounded=0;fontColor=#030303;" vertex="1" parent="1">
                    <mxGeometry x="95" y="360" width="80" height="20" as="geometry"/>
                </mxCell>
                <mxCell id="30" value="" style="rounded=0;whiteSpace=wrap;html=1;strokeColor=#000000;fillColor=#FFFFFF;fontColor=#030303;align=left;" vertex="1" parent="1">
                    <mxGeometry x="85" y="400" width="100" height="40" as="geometry"/>
                </mxCell>
                <mxCell id="31" value="" style="group" vertex="1" connectable="0" parent="1">
                    <mxGeometry x="75" y="405" width="20" height="30" as="geometry"/>
                </mxCell>
                <mxCell id="32" value="" style="rounded=0;whiteSpace=wrap;html=1;strokeColor=#000000;fillColor=#FFFFFF;fontColor=#030303;align=left;" vertex="1" parent="31">
                    <mxGeometry width="20" height="10" as="geometry"/>
                </mxCell>
                <mxCell id="33" value="" style="rounded=0;whiteSpace=wrap;html=1;strokeColor=#000000;fillColor=#FFFFFF;fontColor=#030303;align=left;" vertex="1" parent="31">
                    <mxGeometry y="20" width="20" height="10" as="geometry"/>
                </mxCell>
                <mxCell id="34" value="Web Browser" style="text;html=1;strokeColor=none;fillColor=none;align=center;verticalAlign=middle;whiteSpace=wrap;rounded=0;fontColor=#030303;" vertex="1" parent="1">
                    <mxGeometry x="95" y="410" width="80" height="20" as="geometry"/>
                </mxCell>
                <mxCell id="35" value="" style="rounded=0;whiteSpace=wrap;html=1;strokeColor=#000000;fillColor=#FFFFFF;fontColor=#030303;align=left;" vertex="1" parent="1">
                    <mxGeometry x="970" y="35" width="100" height="40" as="geometry"/>
                </mxCell>
                <mxCell id="36" value="" style="group" vertex="1" connectable="0" parent="1">
                    <mxGeometry x="960" y="40" width="20" height="30" as="geometry"/>
                </mxCell>
                <mxCell id="37" value="" style="rounded=0;whiteSpace=wrap;html=1;strokeColor=#000000;fillColor=#FFFFFF;fontColor=#030303;align=left;" vertex="1" parent="36">
                    <mxGeometry width="20" height="10" as="geometry"/>
                </mxCell>
                <mxCell id="38" value="" style="rounded=0;whiteSpace=wrap;html=1;strokeColor=#000000;fillColor=#FFFFFF;fontColor=#030303;align=left;" vertex="1" parent="36">
                    <mxGeometry y="20" width="20" height="10" as="geometry"/>
                </mxCell>
                <mxCell id="39" value="Telegram-bot" style="text;html=1;strokeColor=none;fillColor=none;align=center;verticalAlign=middle;whiteSpace=wrap;rounded=0;fontColor=#030303;" vertex="1" parent="1">
                    <mxGeometry x="980" y="45" width="80" height="20" as="geometry"/>
                </mxCell>
                <mxCell id="46" value="" style="shape=cube;whiteSpace=wrap;html=1;boundedLbl=1;backgroundOutline=1;darkOpacity=0.05;darkOpacity2=0.1;fillColor=#68B85C;" vertex="1" parent="1">
                    <mxGeometry x="300" y="290" width="160" height="170" as="geometry"/>
                </mxCell>
                <mxCell id="47" value="&lt;font color=&quot;#030303&quot;&gt;AppSync&lt;br&gt;AWS Provider&lt;br&gt;&lt;/font&gt;" style="text;html=1;strokeColor=none;fillColor=none;align=left;verticalAlign=middle;whiteSpace=wrap;rounded=0;" vertex="1" parent="1">
                    <mxGeometry x="325" y="320" width="130" height="20" as="geometry"/>
                </mxCell>
                <mxCell id="48" value="" style="rounded=0;whiteSpace=wrap;html=1;strokeColor=#000000;fillColor=#FFFFFF;fontColor=#030303;align=left;" vertex="1" parent="1">
                    <mxGeometry x="345" y="355" width="100" height="40" as="geometry"/>
                </mxCell>
                <mxCell id="49" value="" style="group" vertex="1" connectable="0" parent="1">
                    <mxGeometry x="335" y="360" width="20" height="30" as="geometry"/>
                </mxCell>
                <mxCell id="50" value="" style="rounded=0;whiteSpace=wrap;html=1;strokeColor=#000000;fillColor=#FFFFFF;fontColor=#030303;align=left;" vertex="1" parent="49">
                    <mxGeometry width="20" height="10" as="geometry"/>
                </mxCell>
                <mxCell id="51" value="" style="rounded=0;whiteSpace=wrap;html=1;strokeColor=#000000;fillColor=#FFFFFF;fontColor=#030303;align=left;" vertex="1" parent="49">
                    <mxGeometry y="20" width="20" height="10" as="geometry"/>
                </mxCell>
                <mxCell id="52" value="&lt;font style=&quot;font-size: 10px&quot;&gt;Private AppSync&lt;/font&gt;" style="text;html=1;strokeColor=none;fillColor=none;align=center;verticalAlign=middle;whiteSpace=wrap;rounded=0;fontColor=#030303;" vertex="1" parent="1">
                    <mxGeometry x="355" y="365" width="80" height="20" as="geometry"/>
                </mxCell>
                <mxCell id="53" value="" style="rounded=0;whiteSpace=wrap;html=1;strokeColor=#000000;fillColor=#FFFFFF;fontColor=#030303;align=left;" vertex="1" parent="1">
                    <mxGeometry x="345" y="405" width="100" height="40" as="geometry"/>
                </mxCell>
                <mxCell id="54" value="" style="group" vertex="1" connectable="0" parent="1">
                    <mxGeometry x="335" y="410" width="20" height="30" as="geometry"/>
                </mxCell>
                <mxCell id="55" value="" style="rounded=0;whiteSpace=wrap;html=1;strokeColor=#000000;fillColor=#FFFFFF;fontColor=#030303;align=left;" vertex="1" parent="54">
                    <mxGeometry width="20" height="10" as="geometry"/>
                </mxCell>
                <mxCell id="56" value="" style="rounded=0;whiteSpace=wrap;html=1;strokeColor=#000000;fillColor=#FFFFFF;fontColor=#030303;align=left;" vertex="1" parent="54">
                    <mxGeometry y="20" width="20" height="10" as="geometry"/>
                </mxCell>
                <mxCell id="57" value="&lt;span style=&quot;font-size: 10px&quot;&gt;Public AppSync&lt;/span&gt;" style="text;html=1;strokeColor=none;fillColor=none;align=center;verticalAlign=middle;whiteSpace=wrap;rounded=0;fontColor=#030303;" vertex="1" parent="1">
                    <mxGeometry x="355" y="415" width="80" height="20" as="geometry"/>
                </mxCell>
                <mxCell id="58" value="" style="shape=cube;whiteSpace=wrap;html=1;boundedLbl=1;backgroundOutline=1;darkOpacity=0.05;darkOpacity2=0.1;fillColor=#68B85C;" vertex="1" parent="1">
                    <mxGeometry x="300" y="120" width="160" height="160" as="geometry"/>
                </mxCell>
                <mxCell id="59" value="&lt;font color=&quot;#030303&quot;&gt;APIGateway&lt;br&gt;AWS Provider&lt;br&gt;&lt;/font&gt;" style="text;html=1;strokeColor=none;fillColor=none;align=left;verticalAlign=middle;whiteSpace=wrap;rounded=0;" vertex="1" parent="1">
                    <mxGeometry x="325" y="150" width="130" height="20" as="geometry"/>
                </mxCell>
                <mxCell id="60" value="" style="rounded=0;whiteSpace=wrap;html=1;strokeColor=#000000;fillColor=#FFFFFF;fontColor=#030303;align=left;" vertex="1" parent="1">
                    <mxGeometry x="345" y="185" width="100" height="40" as="geometry"/>
                </mxCell>
                <mxCell id="61" value="" style="group" vertex="1" connectable="0" parent="1">
                    <mxGeometry x="335" y="190" width="20" height="30" as="geometry"/>
                </mxCell>
                <mxCell id="62" value="" style="rounded=0;whiteSpace=wrap;html=1;strokeColor=#000000;fillColor=#FFFFFF;fontColor=#030303;align=left;" vertex="1" parent="61">
                    <mxGeometry width="20" height="10" as="geometry"/>
                </mxCell>
                <mxCell id="63" value="" style="rounded=0;whiteSpace=wrap;html=1;strokeColor=#000000;fillColor=#FFFFFF;fontColor=#030303;align=left;" vertex="1" parent="61">
                    <mxGeometry y="20" width="20" height="10" as="geometry"/>
                </mxCell>
                <mxCell id="64" value="&lt;font style=&quot;font-size: 10px&quot;&gt;Telegram-bot webhook&lt;/font&gt;" style="text;html=1;strokeColor=none;fillColor=none;align=center;verticalAlign=middle;whiteSpace=wrap;rounded=0;fontColor=#030303;" vertex="1" parent="1">
                    <mxGeometry x="355" y="195" width="80" height="20" as="geometry"/>
                </mxCell>
                <mxCell id="65" value="" style="rounded=0;whiteSpace=wrap;html=1;strokeColor=#000000;fillColor=#FFFFFF;fontColor=#030303;align=left;" vertex="1" parent="1">
                    <mxGeometry x="345" y="235" width="100" height="35" as="geometry"/>
                </mxCell>
                <mxCell id="66" value="" style="group" vertex="1" connectable="0" parent="1">
                    <mxGeometry x="335" y="240" width="20" height="30" as="geometry"/>
                </mxCell>
                <mxCell id="67" value="" style="rounded=0;whiteSpace=wrap;html=1;strokeColor=#000000;fillColor=#FFFFFF;fontColor=#030303;align=left;" vertex="1" parent="66">
                    <mxGeometry width="20" height="10" as="geometry"/>
                </mxCell>
                <mxCell id="68" value="" style="rounded=0;whiteSpace=wrap;html=1;strokeColor=#000000;fillColor=#FFFFFF;fontColor=#030303;align=left;" vertex="1" parent="66">
                    <mxGeometry y="20" width="20" height="10" as="geometry"/>
                </mxCell>
                <mxCell id="69" value="&lt;span style=&quot;font-size: 10px&quot;&gt;REST&lt;/span&gt;" style="text;html=1;strokeColor=none;fillColor=none;align=center;verticalAlign=middle;whiteSpace=wrap;rounded=0;fontColor=#030303;" vertex="1" parent="1">
                    <mxGeometry x="355" y="245" width="80" height="20" as="geometry"/>
                </mxCell>
                <mxCell id="70" value="" style="shape=cube;whiteSpace=wrap;html=1;boundedLbl=1;backgroundOutline=1;darkOpacity=0.05;darkOpacity2=0.1;fillColor=#68B85C;" vertex="1" parent="1">
                    <mxGeometry x="600" y="320" width="160" height="120" as="geometry"/>
                </mxCell>
                <mxCell id="71" value="&lt;font color=&quot;#030303&quot;&gt;DynamoDB&lt;br&gt;AWS Provider&lt;br&gt;&lt;/font&gt;" style="text;html=1;strokeColor=none;fillColor=none;align=left;verticalAlign=middle;whiteSpace=wrap;rounded=0;" vertex="1" parent="1">
                    <mxGeometry x="625" y="350" width="130" height="20" as="geometry"/>
                </mxCell>
                <mxCell id="72" value="" style="rounded=0;whiteSpace=wrap;html=1;strokeColor=#000000;fillColor=#FFFFFF;fontColor=#030303;align=left;" vertex="1" parent="1">
                    <mxGeometry x="645" y="380" width="100" height="40" as="geometry"/>
                </mxCell>
                <mxCell id="73" value="" style="group" vertex="1" connectable="0" parent="1">
                    <mxGeometry x="635" y="385" width="20" height="30" as="geometry"/>
                </mxCell>
                <mxCell id="74" value="" style="rounded=0;whiteSpace=wrap;html=1;strokeColor=#000000;fillColor=#FFFFFF;fontColor=#030303;align=left;" vertex="1" parent="73">
                    <mxGeometry width="20" height="10" as="geometry"/>
                </mxCell>
                <mxCell id="75" value="" style="rounded=0;whiteSpace=wrap;html=1;strokeColor=#000000;fillColor=#FFFFFF;fontColor=#030303;align=left;" vertex="1" parent="73">
                    <mxGeometry y="20" width="20" height="10" as="geometry"/>
                </mxCell>
                <mxCell id="76" value="DynamoDB" style="text;html=1;strokeColor=none;fillColor=none;align=center;verticalAlign=middle;whiteSpace=wrap;rounded=0;fontColor=#030303;" vertex="1" parent="1">
                    <mxGeometry x="655" y="390" width="80" height="20" as="geometry"/>
                </mxCell>
                <mxCell id="77" value="" style="shape=cube;whiteSpace=wrap;html=1;boundedLbl=1;backgroundOutline=1;darkOpacity=0.05;darkOpacity2=0.1;fillColor=#68B85C;" vertex="1" parent="1">
                    <mxGeometry x="600" y="160" width="160" height="120" as="geometry"/>
                </mxCell>
                <mxCell id="78" value="&lt;font color=&quot;#030303&quot;&gt;Lambda&lt;br&gt;AWS Provider&lt;br&gt;&lt;/font&gt;" style="text;html=1;strokeColor=none;fillColor=none;align=left;verticalAlign=middle;whiteSpace=wrap;rounded=0;" vertex="1" parent="1">
                    <mxGeometry x="625" y="190" width="130" height="20" as="geometry"/>
                </mxCell>
                <mxCell id="79" value="" style="rounded=0;whiteSpace=wrap;html=1;strokeColor=#000000;fillColor=#FFFFFF;fontColor=#030303;align=left;" vertex="1" parent="1">
                    <mxGeometry x="645" y="220" width="100" height="40" as="geometry"/>
                </mxCell>
                <mxCell id="80" value="" style="group" vertex="1" connectable="0" parent="1">
                    <mxGeometry x="635" y="225" width="20" height="30" as="geometry"/>
                </mxCell>
                <mxCell id="81" value="" style="rounded=0;whiteSpace=wrap;html=1;strokeColor=#000000;fillColor=#FFFFFF;fontColor=#030303;align=left;" vertex="1" parent="80">
                    <mxGeometry width="20" height="10" as="geometry"/>
                </mxCell>
                <mxCell id="82" value="" style="rounded=0;whiteSpace=wrap;html=1;strokeColor=#000000;fillColor=#FFFFFF;fontColor=#030303;align=left;" vertex="1" parent="80">
                    <mxGeometry y="20" width="20" height="10" as="geometry"/>
                </mxCell>
                <mxCell id="83" value="Function" style="text;html=1;strokeColor=none;fillColor=none;align=center;verticalAlign=middle;whiteSpace=wrap;rounded=0;fontColor=#030303;" vertex="1" parent="1">
                    <mxGeometry x="655" y="230" width="80" height="20" as="geometry"/>
                </mxCell>
                <mxCell id="84" value="" style="shape=cube;whiteSpace=wrap;html=1;boundedLbl=1;backgroundOutline=1;darkOpacity=0.05;darkOpacity2=0.1;fillColor=#68B85C;" vertex="1" parent="1">
                    <mxGeometry x="300" y="520" width="160" height="120" as="geometry"/>
                </mxCell>
                <mxCell id="85" value="&lt;font color=&quot;#030303&quot;&gt;Cognito&lt;br&gt;AWS Provider&lt;br&gt;&lt;/font&gt;" style="text;html=1;strokeColor=none;fillColor=none;align=left;verticalAlign=middle;whiteSpace=wrap;rounded=0;" vertex="1" parent="1">
                    <mxGeometry x="325" y="550" width="130" height="20" as="geometry"/>
                </mxCell>
                <mxCell id="86" value="" style="rounded=0;whiteSpace=wrap;html=1;strokeColor=#000000;fillColor=#FFFFFF;fontColor=#030303;align=left;" vertex="1" parent="1">
                    <mxGeometry x="345" y="580" width="100" height="40" as="geometry"/>
                </mxCell>
                <mxCell id="87" value="" style="group" vertex="1" connectable="0" parent="1">
                    <mxGeometry x="335" y="585" width="20" height="30" as="geometry"/>
                </mxCell>
                <mxCell id="88" value="" style="rounded=0;whiteSpace=wrap;html=1;strokeColor=#000000;fillColor=#FFFFFF;fontColor=#030303;align=left;" vertex="1" parent="87">
                    <mxGeometry width="20" height="10" as="geometry"/>
                </mxCell>
                <mxCell id="89" value="" style="rounded=0;whiteSpace=wrap;html=1;strokeColor=#000000;fillColor=#FFFFFF;fontColor=#030303;align=left;" vertex="1" parent="87">
                    <mxGeometry y="20" width="20" height="10" as="geometry"/>
                </mxCell>
                <mxCell id="90" value="UserPool" style="text;html=1;strokeColor=none;fillColor=none;align=center;verticalAlign=middle;whiteSpace=wrap;rounded=0;fontColor=#030303;" vertex="1" parent="1">
                    <mxGeometry x="355" y="590" width="80" height="20" as="geometry"/>
                </mxCell>
                <mxCell id="91" value="" style="shape=cube;whiteSpace=wrap;html=1;boundedLbl=1;backgroundOutline=1;darkOpacity=0.05;darkOpacity2=0.1;fillColor=#68B85C;" vertex="1" parent="1">
                    <mxGeometry x="600" y="480" width="160" height="120" as="geometry"/>
                </mxCell>
                <mxCell id="92" value="&lt;font color=&quot;#030303&quot;&gt;S3&lt;br&gt;AWS Provider&lt;br&gt;&lt;/font&gt;" style="text;html=1;strokeColor=none;fillColor=none;align=left;verticalAlign=middle;whiteSpace=wrap;rounded=0;" vertex="1" parent="1">
                    <mxGeometry x="625" y="510" width="130" height="20" as="geometry"/>
                </mxCell>
                <mxCell id="93" value="" style="rounded=0;whiteSpace=wrap;html=1;strokeColor=#000000;fillColor=#FFFFFF;fontColor=#030303;align=left;" vertex="1" parent="1">
                    <mxGeometry x="645" y="540" width="100" height="40" as="geometry"/>
                </mxCell>
                <mxCell id="94" value="" style="group" vertex="1" connectable="0" parent="1">
                    <mxGeometry x="635" y="545" width="20" height="30" as="geometry"/>
                </mxCell>
                <mxCell id="95" value="" style="rounded=0;whiteSpace=wrap;html=1;strokeColor=#000000;fillColor=#FFFFFF;fontColor=#030303;align=left;" vertex="1" parent="94">
                    <mxGeometry width="20" height="10" as="geometry"/>
                </mxCell>
                <mxCell id="96" value="" style="rounded=0;whiteSpace=wrap;html=1;strokeColor=#000000;fillColor=#FFFFFF;fontColor=#030303;align=left;" vertex="1" parent="94">
                    <mxGeometry y="20" width="20" height="10" as="geometry"/>
                </mxCell>
                <mxCell id="97" value="Bucket" style="text;html=1;strokeColor=none;fillColor=none;align=center;verticalAlign=middle;whiteSpace=wrap;rounded=0;fontColor=#030303;" vertex="1" parent="1">
                    <mxGeometry x="655" y="550" width="80" height="20" as="geometry"/>
                </mxCell>
                <mxCell id="100" value="" style="endArrow=none;html=1;fontColor=#030303;strokeColor=#000000;exitX=0;exitY=0;exitDx=160;exitDy=70;exitPerimeter=0;entryX=0.063;entryY=0.688;entryDx=0;entryDy=0;entryPerimeter=0;" edge="1" parent="1" source="2" target="58">
                    <mxGeometry width="50" height="50" relative="1" as="geometry">
                        <mxPoint x="460" y="420" as="sourcePoint"/>
                        <mxPoint x="510" y="370" as="targetPoint"/>
                    </mxGeometry>
                </mxCell>
                <mxCell id="101" value="https" style="text;html=1;strokeColor=none;fillColor=none;align=center;verticalAlign=middle;whiteSpace=wrap;rounded=0;fontColor=#030303;" vertex="1" parent="1">
                    <mxGeometry x="230" y="210" width="40" height="20" as="geometry"/>
                </mxCell>
                <mxCell id="102" value="" style="endArrow=none;html=1;fontColor=#030303;strokeColor=#000000;exitX=0;exitY=0;exitDx=160;exitDy=70;exitPerimeter=0;entryX=0.063;entryY=0.688;entryDx=0;entryDy=0;entryPerimeter=0;" edge="1" parent="1">
                    <mxGeometry width="50" height="50" relative="1" as="geometry">
                        <mxPoint x="200" y="374.65999999999997" as="sourcePoint"/>
                        <mxPoint x="310.0799999999999" y="374.74" as="targetPoint"/>
                    </mxGeometry>
                </mxCell>
                <mxCell id="103" value="https" style="text;html=1;strokeColor=none;fillColor=none;align=center;verticalAlign=middle;whiteSpace=wrap;rounded=0;fontColor=#030303;" vertex="1" parent="1">
                    <mxGeometry x="230" y="355" width="40" height="20" as="geometry"/>
                </mxCell>
                <mxCell id="104" value="" style="endArrow=none;html=1;strokeColor=#000000;fontColor=#030303;edgeStyle=orthogonalEdgeStyle;exitX=0.523;exitY=0.996;exitDx=0;exitDy=0;exitPerimeter=0;" edge="1" parent="1" source="14" target="84">
                    <mxGeometry width="50" height="50" relative="1" as="geometry">
                        <mxPoint x="120" y="500" as="sourcePoint"/>
                        <mxPoint x="250" y="580" as="targetPoint"/>
                        <Array as="points">
                            <mxPoint x="124" y="580"/>
                        </Array>
                    </mxGeometry>
                </mxCell>
                <mxCell id="105" value="https" style="text;html=1;strokeColor=none;fillColor=none;align=center;verticalAlign=middle;whiteSpace=wrap;rounded=0;fontColor=#030303;" vertex="1" parent="1">
                    <mxGeometry x="200" y="560" width="40" height="20" as="geometry"/>
                </mxCell>
                <mxCell id="106" value="" style="endArrow=none;html=1;strokeColor=#000000;fontColor=#030303;entryX=0.01;entryY=0.337;entryDx=0;entryDy=0;entryPerimeter=0;" edge="1" parent="1" source="58" target="77">
                    <mxGeometry width="50" height="50" relative="1" as="geometry">
                        <mxPoint x="500" y="250" as="sourcePoint"/>
                        <mxPoint x="590" y="200" as="targetPoint"/>
                    </mxGeometry>
                </mxCell>
                <mxCell id="107" value="TCP/IP" style="text;html=1;strokeColor=none;fillColor=none;align=center;verticalAlign=middle;whiteSpace=wrap;rounded=0;fontColor=#030303;" vertex="1" parent="1">
                    <mxGeometry x="500" y="180" width="40" height="20" as="geometry"/>
                </mxCell>
                <mxCell id="108" value="" style="endArrow=none;html=1;strokeColor=#000000;fontColor=#030303;entryX=0.51;entryY=0.99;entryDx=0;entryDy=0;entryPerimeter=0;" edge="1" parent="1" target="77">
                    <mxGeometry width="50" height="50" relative="1" as="geometry">
                        <mxPoint x="682" y="321" as="sourcePoint"/>
                        <mxPoint x="611.5999999999999" y="210.44" as="targetPoint"/>
                    </mxGeometry>
                </mxCell>
                <mxCell id="109" value="TCP/IP" style="text;html=1;strokeColor=none;fillColor=none;align=center;verticalAlign=middle;whiteSpace=wrap;rounded=0;fontColor=#030303;" vertex="1" parent="1">
                    <mxGeometry x="685" y="290" width="40" height="20" as="geometry"/>
                </mxCell>
                <mxCell id="110" value="" style="endArrow=none;html=1;strokeColor=#000000;fontColor=#030303;entryX=0.01;entryY=0.337;entryDx=0;entryDy=0;entryPerimeter=0;" edge="1" parent="1">
                    <mxGeometry width="50" height="50" relative="1" as="geometry">
                        <mxPoint x="460" y="379.99884476534294" as="sourcePoint"/>
                        <mxPoint x="601.5999999999999" y="380.28" as="targetPoint"/>
                    </mxGeometry>
                </mxCell>
                <mxCell id="111" value="Pipe" style="text;html=1;strokeColor=none;fillColor=none;align=center;verticalAlign=middle;whiteSpace=wrap;rounded=0;fontColor=#030303;" vertex="1" parent="1">
                    <mxGeometry x="500" y="360" width="40" height="20" as="geometry"/>
                </mxCell>
                <mxCell id="112" value="" style="endArrow=none;html=1;strokeColor=#000000;fontColor=#030303;edgeStyle=orthogonalEdgeStyle;exitX=0;exitY=0;exitDx=160;exitDy=70;exitPerimeter=0;" edge="1" parent="1" source="77">
                    <mxGeometry width="50" height="50" relative="1" as="geometry">
                        <mxPoint x="830.0100000000001" y="314.32000000000005" as="sourcePoint"/>
                        <mxPoint x="760" y="533" as="targetPoint"/>
                        <Array as="points">
                            <mxPoint x="790" y="230"/>
                            <mxPoint x="790" y="533"/>
                        </Array>
                    </mxGeometry>
                </mxCell>
                <mxCell id="113" value="TCP/IP" style="text;html=1;strokeColor=none;fillColor=none;align=center;verticalAlign=middle;whiteSpace=wrap;rounded=0;fontColor=#030303;" vertex="1" parent="1">
                    <mxGeometry x="745" y="460" width="40" height="20" as="geometry"/>
                </mxCell>
                <mxCell id="114" value="" style="endArrow=none;html=1;strokeColor=#000000;fontColor=#030303;edgeStyle=orthogonalEdgeStyle;entryX=1.005;entryY=0.854;entryDx=0;entryDy=0;entryPerimeter=0;" edge="1" parent="1" target="84">
                    <mxGeometry width="50" height="50" relative="1" as="geometry">
                        <mxPoint x="760" y="210" as="sourcePoint"/>
                        <mxPoint x="770" y="620" as="targetPoint"/>
                        <Array as="points">
                            <mxPoint x="810" y="210"/>
                            <mxPoint x="810" y="622"/>
                            <mxPoint x="770" y="622"/>
                        </Array>
                    </mxGeometry>
                </mxCell>
                <mxCell id="115" value="TCP/IP" style="text;html=1;strokeColor=none;fillColor=none;align=center;verticalAlign=middle;whiteSpace=wrap;rounded=0;fontColor=#030303;" vertex="1" parent="1">
                    <mxGeometry x="820" y="375" width="40" height="20" as="geometry"/>
                </mxCell>
            </root>
        </mxGraphModel>
    </diagram>
</mxfile>